<?xml version="1.0" encoding="utf-8"?>
<!-- Generator: Adobe Illustrator 23.1.1, SVG Export Plug-In . SVG Version: 6.00 Build 0)  -->
<svg version="1.1" id="Layer_1" xmlns="http://www.w3.org/2000/svg" xmlns:xlink="http://www.w3.org/1999/xlink" x="0px" y="0px"
	 viewBox="0 0 20 20" style="enable-background:new 0 0 20 20;" xml:space="preserve">
<path d="M19.63,8.36l-2.57-0.42c-0.15-0.52-0.36-1.01-0.61-1.48l1.5-2.14c0.12-0.17,0.1-0.41-0.05-0.56l-1.69-1.69
	c-0.15-0.15-0.39-0.17-0.56-0.05l-2.11,1.51c-0.47-0.26-0.97-0.47-1.49-0.62L11.6,0.36C11.57,0.15,11.39,0,11.18,0H8.78
	C8.57,0,8.39,0.15,8.36,0.36L7.94,2.91C7.42,3.06,6.92,3.27,6.45,3.52l-2.1-1.5C4.17,1.9,3.94,1.92,3.78,2.07L2.09,3.76
	C1.95,3.91,1.92,4.14,2.05,4.32l1.48,2.11C3.26,6.91,3.05,7.41,2.9,7.94L0.36,8.36C0.15,8.39,0,8.57,0,8.79v2.39
	c0,0.21,0.15,0.39,0.36,0.43l2.54,0.45c0.15,0.52,0.36,1.03,0.63,1.5l-1.5,2.09c-0.12,0.17-0.1,0.41,0.05,0.56l1.69,1.69
	c0.15,0.15,0.38,0.17,0.56,0.05l2.12-1.48c0.48,0.26,0.98,0.47,1.5,0.62l0.42,2.55C8.39,19.85,8.57,20,8.78,20h2.39
	c0.21,0,0.39-0.15,0.43-0.36l0.45-2.56c0.52-0.15,1.02-0.36,1.49-0.62l2.13,1.5c0.17,0.12,0.41,0.1,0.56-0.05l1.69-1.69
	c0.15-0.15,0.17-0.39,0.05-0.56l-1.52-2.11c0.26-0.47,0.46-0.97,0.61-1.48l2.57-0.45c0.21-0.04,0.36-0.22,0.36-0.43V8.79
	C20,8.57,19.84,8.39,19.63,8.36z M10,13.04c-1.68,0-3.04-1.36-3.04-3.04S8.32,6.96,10,6.96s3.04,1.36,3.04,3.04
	S11.68,13.04,10,13.04z"/>
</svg>
